<?xml version="1.0" encoding="UTF-8"?>
<svg id="Layer_1" xmlns="http://www.w3.org/2000/svg" version="1.1" viewBox="0 0 1024 1024">
  <!-- Generator: Adobe Illustrator 29.0.1, SVG Export Plug-In . SVG Version: 2.1.0 Build 192)  -->
  <defs>
    <style>
      .st0 {
        fill: #3f3f3f;
      }

      .st1 {
        fill: #fefefe;
      }
    </style>
  </defs>
  <path class="st0" d="M639.7,439.5c1.3,1.9.2,12.6,0,15.6-5-4.2-11.5-3-17.7-2.9,0,4,0,8,0,12.1,4.7,0,9.2,0,13.8-.8l-.5,18.4-3-5.3c-3.3,0-6.7,0-10,.1,0,6.8,0,13.6,0,20.4,1.4,2.4,3.4,4.3,4.8,6.7h-23.9c1.6-2.2,3.1-4.4,4.6-6.6,0-16,.9-32.5,0-48.5-.3-4.7-1.2-5.9-4.6-8.9,12.2.1,24.5.4,36.7-.3Z"/>
  <path class="st0" d="M853.6,439.5c1.2,1.7.3,13.7.2,16.8-1.1-1.5-2.3-2.8-3.5-4.2h-14.2c0,4,.3,8,.5,12.1,4.5,0,9-.3,13.5-.5v14.6c-4.6-2.6-8.8-2.1-14-2v14.4c7.7.1,12.4.8,19.1-3.9l-.3,16.3c-4.9,1.4-30.7.5-37.5.5,1.7-1.6,3.3-3.3,4.8-5.1.5-7,0-14.3,0-21.4,0-10.8.2-21.7-.3-32.5-1.4-1.7-2.8-3.4-4.3-5,11.9-.2,23.8.3,35.7-.2Z"/>
  <path class="st0" d="M790,439.3c6.5-.4,12.5.5,18.9,1.4-1.1,4.6-1.9,9.2-2.7,13.8-4.4-2.9-9-4.1-14.3-3.2-5.3.9-9.6,4.1-12.5,8.6-.2.3-.4.6-.6.9-.2.3-.3.6-.5.9-.2.3-.3.6-.5.9-.1.3-.3.6-.4,1-.1.3-.2.7-.4,1-.1.3-.2.7-.3,1,0,.3-.2.7-.3,1,0,.3-.1.7-.2,1,0,.3-.1.7-.1,1,0,.3,0,.7,0,1,0,.3,0,.7,0,1.1,0,.4,0,.7,0,1.1s0,.7,0,1.1c0,.3,0,.7.1,1,0,.3.1.7.2,1s.1.7.2,1c0,.3.2.6.3,1,0,.3.2.6.3.9.1.3.2.6.4.9.1.3.3.6.4.9.1.3.3.6.5.9.2.3.3.6.5.9s.4.6.5.8c.2.3.4.5.6.8.2.3.4.5.6.8.2.3.4.5.7.8.2.2.5.5.7.7.2.2.5.5.7.7.2.2.5.4.8.6.3.2.5.4.8.6.3.2.5.4.8.6.3.2.6.4.9.5,3.3,1.9,8.7,3.3,12.4,2,.7-.2.8-.6,1.1-1.2,1.7-4.7-2.9-12.1-5.1-16.2,6.4-.3,12.9-.2,19.4-.2l.6.2c1.3,3.4.4,22.9.3,27.6-2,.9-4.1,1.6-6.3,2.2-9.9,2.4-22.1,1.9-30.9-3.6-.4-.3-.8-.5-1.3-.8-.4-.3-.8-.6-1.2-.9-.4-.3-.8-.6-1.2-.9-.4-.3-.8-.7-1.1-1-.4-.3-.7-.7-1.1-1.1-.3-.4-.7-.7-1-1.1-.3-.4-.6-.8-1-1.2-.3-.4-.6-.8-.9-1.2-.3-.4-.6-.8-.8-1.2-.3-.4-.5-.9-.8-1.3-.2-.4-.5-.9-.7-1.3-.2-.4-.4-.9-.6-1.4-.2-.5-.4-.9-.6-1.4-.2-.5-.3-.9-.5-1.4-.2-.5-.3-1-.4-1.4-.1-.5-.3-1-.4-1.5-2-8.8-.9-18.8,4.1-26.4,5.1-7.9,12.9-12.4,22-14.3Z"/>
  <path class="st0" d="M712.4,439.9c8.5-.7,22.4-1.2,30.5,1.1,4.8,1.4,8.7,4.2,11,8.7,2.3,4.5,2.8,10.2,1,15-1.6,4.5-4.6,7-8.8,9,7.2,12.9,8.8,20.5,21.7,29.2-4.1,1.2-8.8,1.6-13.1,1.5-4.4-.1-7.9-1-10.9-4.2-5.6-7.5-7.8-17.4-13.2-25.3-.2,7.6,0,15.3,0,22.9,1.7,1.8,3.6,3.6,5.4,5.4-8,.9-16.5.4-24.6.3,2.8-2.7,4.4-4.3,4.8-8.3.9-8.8.2-18.2.2-27,0-7.1.8-15.4-.5-22.4-.3-1.4-1-2.2-1.9-3.2-.6-.7-1.2-1.3-1.6-2.2,0-.2-.1-.3-.2-.5Z"/>
  <path class="st1" d="M730.5,451.7c2.6.2,5.5.4,8,1.5,1.7.8,3.3,1.9,3.8,3.8.6,2.3-.7,4.8-1.9,6.6-3.4,1.8-6.3,1.6-9.9,1.6-.2-4.5,0-9,0-13.5Z"/>
  <path class="st0" d="M403.2,439.3c7.4-1.1,15.6.7,21.9,4.5,7.1,4.3,11.7,11.1,13.6,19.2,2,8.7.7,18.3-4.1,25.9-5.2,8.1-13,12.8-22.3,14.7-8.3.8-15.9-.4-22.9-5-7-4.6-12-11.5-13.7-19.8-1.7-8.6-.2-18.7,4.8-26,5.4-7.9,13.5-11.7,22.7-13.4Z"/>
  <path class="st1" d="M404.1,452.3c3.8-.3,7-.2,10.6,1.4,4.8,2.2,8.7,6.4,10.4,11.4,1.7,5.1,1.1,11.3-1.5,16-2.8,5.3-7.4,8-12.9,9.5-4.6.3-8.6,0-12.8-2.2-4.3-2.4-7.4-6.3-8.8-11.1-1.5-5.2-1-10.9,1.8-15.6,3-5.2,7.6-7.9,13.3-9.4Z"/>
  <path class="st0" d="M673.7,439.4c7.5-.8,15.5.9,21.8,5,.4.3.9.6,1.3.9s.8.6,1.2.9c.4.3.8.7,1.2,1,.4.3.8.7,1.1,1.1.4.4.7.7,1.1,1.1.3.4.7.8,1,1.2.3.4.6.8,1,1.2.3.4.6.8.9,1.3.3.4.6.9.8,1.3.3.4.5.9.8,1.3.2.5.5.9.7,1.4.2.5.4.9.6,1.4s.4,1,.6,1.4c.2.5.3,1,.5,1.5.2.5.3,1,.4,1.5.1.5.2,1,.3,1.5.1.6.2,1.1.3,1.7,0,.6.2,1.1.2,1.7,0,.6.1,1.1.1,1.7,0,.6,0,1.1,0,1.7,0,.6,0,1.1,0,1.7,0,.6,0,1.1-.1,1.7,0,.6-.1,1.1-.2,1.7,0,.6-.2,1.1-.3,1.7-.1.6-.2,1.1-.4,1.6-.1.5-.3,1.1-.4,1.6-.2.5-.3,1.1-.5,1.6-.2.5-.4,1.1-.6,1.6-.2.5-.4,1-.7,1.5-.2.5-.5,1-.8,1.5-.3.5-.5,1-.8,1.5-.3.5-.6,1-.9,1.4-5.3,8-12.6,11.7-21.8,13.5-9.1.4-17.6-.2-25.1-6.1-6.7-5.3-11-13.3-12.1-21.8-1.1-8.7,1-17.6,6.5-24.6,5.7-7.1,13.4-10.8,22.3-11.8Z"/>
  <path class="st1" d="M673.6,452.3c4-.3,7.6-.3,11.4,1.4.3.1.6.3.9.4.3.1.6.3.8.5.3.2.6.3.8.5.3.2.5.3.8.5.3.2.5.4.8.6.2.2.5.4.7.6.2.2.5.4.7.7.2.2.5.5.7.7.2.2.4.5.6.7.2.2.4.5.6.8.2.3.4.5.6.8.2.3.3.5.5.8.2.3.3.6.5.8.2.3.3.6.4.9.1.3.3.6.4.9.1.3.2.6.3.9.1.3.2.6.3,1,0,.3.2.6.3,1,0,.3.1.7.2,1,0,.3.1.7.2,1,0,.3,0,.7.1,1,0,.3,0,.7,0,1,0,.3,0,.7,0,1,0,.3,0,.7,0,1,0,.3,0,.7,0,1,0,.3,0,.7-.1,1,0,.3-.1.7-.2,1,0,.3-.1.7-.2,1,0,.3-.2.6-.3,1s-.2.6-.3.9c-.1.3-.2.6-.4.9-.1.3-.3.6-.4.9-2.6,5.5-7.2,8.6-12.7,10.5-4.6.7-9.2.1-13.3-2.1-.3-.2-.6-.3-.9-.5-.3-.2-.6-.4-.8-.5-.3-.2-.5-.4-.8-.6-.3-.2-.5-.4-.8-.6-.2-.2-.5-.4-.7-.7-.2-.2-.5-.5-.7-.7s-.4-.5-.7-.7c-.2-.3-.4-.5-.6-.8-.2-.3-.4-.5-.6-.8-.2-.3-.4-.6-.5-.8-.2-.3-.3-.6-.5-.9-.2-.3-.3-.6-.5-.9-.1-.3-.3-.6-.4-.9-.1-.3-.2-.6-.4-.9-.1-.3-.2-.6-.3-.9,0-.3-.2-.6-.3-1,0-.3-.2-.6-.2-1,0-.3-.1-.6-.2-1,0-.3,0-.7-.1-1,0-.3,0-.7,0-1,0-.3,0-.7,0-1,0-.3,0-.7,0-1,0-.3,0-.7,0-1,0-.3,0-.7.1-1,0-.3.1-.7.2-1s.1-.6.2-1c0-.3.2-.6.3-1,0-.3.2-.6.3-.9.1-.3.2-.6.4-.9.1-.3.3-.6.4-.9.1-.3.3-.6.5-.9.2-.3.3-.6.5-.9,3-4.8,7.2-7.4,12.6-8.7Z"/>
  <path class="st0" d="M158.5,439.5h9s-4.8,5-4.8,5c-.5,7.9-.3,15.8-.3,23.8,0,5.3-.7,11,0,16.2.3,2.1,1.1,4.6,2.9,5.8,2.1,1.4,5,1.4,7.4.9,2.4-.4,5-1.7,6.2-4,1.5-2.9,1.4-38.1.2-42-.8-2.6-3.9-4.1-6-5.4,14.8-.2,30.1-.7,44.9.6,7.6,11.7,14.2,24.3,21,36.4.3-10.9.4-21.9.3-32.8-.8-.7-3.2-2.4-3.2-3.3,3.3-2,16.8-.8,21.5-.8-1.6,1.5-2.9,3.1-4.2,4.8-.7,7.1-.3,14.5-.3,21.7,0,10.9,0,21.9.4,32.8,1.8,1.8,3.8,3.1,5.8,4.4-7.9.2-15.9.2-23.8.1l-.3-.3c.1-1.4,1.5-2.9,2.3-4.1-6.7-11.5-14-23-19.9-35,.1,11.4-.3,22.8-.2,34.2,1.6,1.9,3.5,3.6,5.2,5.4-8,.2-16.1.2-24.1-.2,1.2-1,2.4-2,3.4-3.2,1-1.3,1.4-2.4,1.7-4.1.9-7,.3-14.6.3-21.7,0-9.1,1-20.4-.6-29.3-.5-2.7-2.7-3.9-4.8-5.4-1.9,1.8-3.5,3.6-4.9,5.8-.2,10.7,1.3,34-.6,43.2-.6,3-1.8,5.9-3.9,8.2-4.2,4.9-10.6,6.6-16.8,6.9-6.4.3-13.7-.9-18.5-5.4-2.2-2.1-3.6-4.8-4.3-7.8-2.1-8.9-.2-29.3-.5-39.6-.2-5.5-1.3-7.9-5.2-11.5,4.9-.1,9.9-.1,14.8-.2Z"/>
  <path class="st0" d="M354.2,444.3c-1.3-1.1-2.8-2.2-3.5-3.8l.5-.6,1.4-.2h19.8c-1.3,1.8-2.7,3.3-4.1,4.8-.2,10,0,20,0,30,0,7.4-.9,15.6.2,22.8.5,3.2,2.9,4.5,5.2,6.3h-26.3c1.9-1.6,3.6-3.3,5.3-5.1-5.5-11.4-13.3-22.5-19.9-33.2.2,11,.3,21.9.3,32.9l3.7,5.4h-47.8c1.2-1.3,2.4-2.4,2.8-4.1-1.2-5-10.7-15.5-14.3-20,0,6.5,0,12.9.1,19.4,1.4,1.7,3,3.1,4.5,4.7h-23.1s4.6-3.9,4.6-3.9c.5-18.6.5-37.2.3-55.8-1.5-1.3-3-2.4-4.1-4.1,7.6-.3,15.3-.1,22.9,0l-4.8,4.8v19.2c4.8-6.4,9.6-12.7,14.2-19.3-1.9-1.6-4-3.1-5.9-4.7,9.1,0,18.2,0,27.3.1-6.8,6.1-21.2,23.2-25.9,31.3,8.9,10.8,15.4,24.1,27.6,31.5,1.8-1.3,3.1-2.8,4.4-4.6.3-6,0-12.1,0-18.2v-35.6c0,0-5-4.7-5-4.7,6.3.2,12.6.2,18.9.3,6.7,12.3,14,24.4,21.3,36.3-.4-10.7.5-21.5-.3-32.1Z"/>
  <path class="st0" d="M504.4,439.8h26.5c5.1-.1,10.6-.6,15.7.3,1.3,1.5-.2,3.9,1,5.9,6.5,10.6,12.8,21.3,18.9,32.1-.6-11.1.1-22.4-.8-33.5-1.3-1.5-2.8-2.9-4.2-4.3,7.6-.3,15.1-.4,22.7-.3l-3.8,5.4c-.5,13.5,0,27.1,0,40.6,0,2.8-.2,5.6,0,8.4.2,4.5,2.2,6.4,5.3,9.3-6.2.3-12.5.1-18.7.1-7-13.6-15.6-26.4-22.5-40.2,1.1,11.6,0,23.2.5,34.8,1.5,1.8,3.1,3.6,4.7,5.3h-23.2c1.8-1.9,3.4-3.9,5-6.1,0-15.9.5-32,0-47.9,0-2.8-.8-5.6-3-7.5-.9-.8-1.4-1.2-2.7-1.1-2,1.6-3.3,3.9-4.4,6.2-3.4,7.3-5.7,15.5-8.2,23.1-3.8,11.1-7.8,22.1-11.2,33.3-4.4.1-8.8,0-13.2,0-1.8-6.6-4.2-13-6.6-19.5-2.4,6.4-4.8,12.9-6.6,19.6h-12.8c-5.3-15-10.8-29.8-16.7-44.6-1.6-3.9-2.8-8.9-4.9-12.5-1.5-2.6-4.3-3.9-5.9-6.3-.1-.2-.2-.3-.3-.5,7.4-.8,15.4.2,23-.2l-3.1,4.8c4.9,13.2,10.2,26.3,15,39.6,1.8-4.6,3.4-9.2,5-13.8-3.2-9.7-6.6-23.8-14.8-30.4,7.7,0,15.3,0,23,.1l-2.3,4.8c5.3,12.4,9.6,25.1,15.1,37.4,3.2-12.8,8.5-25.1,12-37.8l-3.4-4.7Z"/>
  <path class="st1" d="M578.4,282.6l1,.8v.7c-14.5,6.4-30.8,11.3-45.8,16.4-.9-.3-.8-.4-1.2-1.2l.3-.9c6.4-3,13.9-4.9,20.6-7.2,8.4-2.8,16.6-6.2,25-8.7Z"/>
  <path class="st1" d="M498.5,313.5c1,.8.8.5.9,1.6-1.4,1.7-52.1,20-56.4,20.7-.7-.3-.3,0-.9-1,2.3-2.8,48.4-18.6,56.3-21.4Z"/>
  <path class="st1" d="M418.9,344.1c.3.4.3.9.4,1.4-.7,1-1.5,1.3-2.5,1.7-8.4,3.6-17.4,6.3-25.9,9.5l-73.9,27.8c-.6-1.3-.9-1.4-.6-2.8,4.7-2.4,10-4,15-5.8l22.7-8.3c21.5-7.9,43-16.6,64.9-23.5Z"/>
  <path class="st1" d="M502.4,323.5c1,1.1-3.4,11.3-1.8,14.9.6,1.3.9,1.3,2.2,1.8,2.9-.3,6.3-2.6,9-3.9l-.3.4c-5.6,9-14.1,16-19.8,25.1-3.6-2.4-7.3-4.6-10.9-6.9-7.2-4.4-13.9-9.8-20.3-15.3,13.8-5.8,28.1-10.8,42-16.2Z"/>
</svg>